<?xml version="1.0" encoding="utf-8"?>
<!-- Generator: Adobe Illustrator 16.0.0, SVG Export Plug-In . SVG Version: 6.00 Build 0)  -->
<!DOCTYPE svg PUBLIC "-//W3C//DTD SVG 1.1//EN" "http://www.w3.org/Graphics/SVG/1.1/DTD/svg11.dtd">
<svg version="1.1" id="Layer_1" xmlns="http://www.w3.org/2000/svg" xmlns:xlink="http://www.w3.org/1999/xlink" x="0px" y="0px"
	 width="1000px" height="940.231px" viewBox="749 779.884 1000 940.231" enable-background="new 749 779.884 1000 940.231"
	 xml:space="preserve">
<g>
	<path fill="#FFFFFF" d="M1255.156,1708.414c-2.768,0-5.408-0.102-7.417-0.199c-1.593,0.139-3.239,0.199-4.887,0.199
		c-58.147,0-97.025-27.49-131.335-51.762c-24.591-17.371-47.782-33.771-74.952-38.291c-13.345-2.213-26.618-3.334-39.444-3.334
		c-23.109,0-41.372,3.584-54.705,6.191c-8.206,1.598-15.28,2.975-20.748,2.975c-5.727,0-12.686-1.27-15.586-11.172
		c-2.299-7.811-3.946-15.379-5.538-22.666c-3.98-18.211-6.868-29.326-13.686-30.381c-72.928-11.252-116.018-27.828-124.601-47.902
		c-0.873-2.006-1.384-4.148-1.513-6.332c-0.335-5.971,3.885-11.236,9.788-12.209c57.917-9.535,109.412-40.146,153.067-91.012
		c33.818-39.379,50.424-77.003,52.207-81.156c0.079-0.191,0.167-0.379,0.262-0.563c8.415-17.073,10.089-31.826,4.991-43.838
		c-9.396-22.161-40.519-32.035-61.107-38.568c-5.123-1.62-9.965-3.154-13.824-4.686c-18.252-7.209-48.27-22.442-44.271-43.468
		c2.912-15.331,23.191-26.009,39.581-26.009c4.551,0,8.583,0.798,11.978,2.392c18.519,8.677,35.181,13.074,49.509,13.074
		c17.82,0,26.426-6.785,28.507-8.712c-0.541-9.731-1.126-19.46-1.759-29.186c-4.184-66.538-9.401-149.344,11.78-196.828
		c63.395-142.139,197.835-153.192,237.518-153.192c6.55-0.055,13.1-0.117,19.648-0.185c39.791,0,174.514,11.066,237.947,153.291
		c21.18,47.516,15.959,130.391,11.764,197l-0.197,3.187c-0.576,9.044-1.107,17.605-1.557,25.903
		c1.959,1.804,9.836,8.023,25.859,8.653c13.66-0.524,29.357-4.901,46.643-12.995c5.344-2.508,11.262-3.029,15.277-3.029
		c6.072,0,12.25,1.182,17.398,3.33l0.275,0.106c14.668,5.208,24.275,15.612,24.484,26.543c0.184,10.19-7.389,25.422-44.635,40.13
		c-3.814,1.511-8.682,3.056-13.824,4.687c-20.607,6.541-51.705,16.409-61.102,38.557c-5.104,12.012-3.426,26.76,4.992,43.828
		c0.092,0.187,0.174,0.376,0.264,0.572c2.592,6.074,65.32,149.104,205.275,172.163c5.898,0.977,10.117,6.236,9.789,12.209
		c-0.137,2.203-0.66,4.367-1.549,6.389c-8.523,19.961-51.611,36.514-124.561,47.781c-6.846,1.059-9.73,12.125-13.676,30.238
		c-1.633,7.482-3.295,14.816-5.561,22.523c-2.123,7.25-6.846,10.791-14.428,10.791h-1.143c-4.938,0-11.932-0.896-20.754-2.623
		c-15.418-3-32.713-5.793-54.705-5.793c-12.822,0-26.094,1.125-39.453,3.334c-27.143,4.52-50.33,20.893-74.877,38.246
		C1352.189,1680.922,1313.298,1708.414,1255.156,1708.414"/>
	<path fill="#020202" d="M1258.615,803.307c37.462,0,166.459,10.063,227.248,146.35c20.018,44.877,14.887,126.171,10.771,191.476
		c-0.643,10.364-1.281,20.409-1.801,30l-0.217,4.123l2.752,3.071c1.113,1.233,11.518,12.107,34.66,13.002l0.373,0.021l0.389-0.008
		c15.301-0.583,32.533-5.336,51.252-14.104c2.756-1.291,6.426-1.92,10.309-1.92c4.422,0,9.125,0.832,13.002,2.464l0.584,0.233
		c9.816,3.44,16.752,9.923,16.859,15.791c0.057,3.316-2.422,15.267-37.213,29.01c-3.4,1.341-7.875,2.769-13.064,4.405
		c-22.639,7.189-56.842,18.038-68.354,45.163c-6.482,15.279-4.707,33.312,5.271,53.588c4.105,9.582,68.727,155.143,214.141,179.105
		c-0.049,0.807-0.25,1.6-0.592,2.332c-2.465,5.805-18.131,25.859-115.615,40.902c-15.254,2.338-18.99,19.438-23.322,39.314
		c-1.566,7.115-3.158,14.301-5.344,21.719c-0.67,2.242-0.795,2.369-3.197,2.369h-1.145c-4.322,0-10.885-0.896-18.49-2.391
		c-13.852-2.697-32.775-6.006-56.967-6.006c-13.504,0-27.412,1.174-41.367,3.504c-29.832,4.961-54.092,22.119-79.783,40.279
		c-34.504,24.381-70.166,49.611-124.579,49.611c-2.377,0-4.696-0.08-7.02-0.197l-0.612-0.027l-0.615,0.047
		c-1.333,0.117-2.679,0.178-4.052,0.178c-54.404,0-90.083-25.223-124.571-49.611c-25.697-18.16-49.97-35.318-79.796-40.279
		c-13.942-2.322-27.864-3.504-41.359-3.504c-24.186,0-43.134,3.701-56.957,6.404c-7.606,1.486-14.191,2.762-18.501,2.762
		c-3.53,0-3.597-0.207-4.344-2.758c-2.187-7.424-3.786-14.779-5.344-21.885c-4.344-19.898-8.083-37.09-23.329-39.43
		c-97.476-15.057-113.145-35.146-115.617-40.936c-0.336-0.752-0.539-1.557-0.599-2.377
		c145.413-23.941,210.022-169.509,214.141-179.127c9.995-20.261,11.768-38.291,5.266-53.588
		c-11.512-27.11-45.71-37.974-68.333-45.15c-5.202-1.646-9.681-3.077-13.083-4.418c-29.378-11.608-38.414-23.3-37.072-30.387
		c1.558-8.17,15.723-16.479,28.085-16.479c2.778,0,5.214,0.449,7.015,1.291c20.077,9.41,38.403,14.181,54.479,14.181
		c25.271,0,36.518-11.758,37.725-13.1l2.739-3.063l-0.22-4.102c-0.511-9.586-1.14-19.629-1.804-29.972
		c-4.101-65.32-9.233-146.56,10.776-191.44C1072.74,813.958,1201.106,803.49,1239,803.49c0.933,0,17.408-0.168,17.408-0.168
		C1257.081,803.317,1257.831,803.307,1258.615,803.307 M1258.615,779.884h-0.045c-0.861,0-1.672,0-2.445,0.011l-17.189,0.17
		c-22.199,0-66.616,3.136-114.326,24.195c-27.278,12.032-51.815,28.302-72.926,48.358c-25.169,23.897-45.674,53.36-60.932,87.584
		c-22.347,50.11-17.042,134.514-12.782,202.343l0.016,0.106c0.456,7.265,0.935,14.85,1.373,22.241
		c-3.278,1.506-8.593,3.095-16.427,3.095c-12.605,0-27.595-4.03-44.541-11.971c-4.987-2.322-10.678-3.497-16.957-3.497
		c-10.089,0-20.724,2.97-29.951,8.394c-11.607,6.816-19.107,16.449-21.144,27.128c-1.343,7.065-1.279,21.029,14.231,35.188
		c8.532,7.795,21.064,14.983,37.241,21.378c4.246,1.671,9.284,3.268,14.62,4.959c18.515,5.886,46.541,14.776,53.849,31.977
		c3.704,8.722,2.11,20.196-4.724,34.065c-0.178,0.379-0.358,0.749-0.521,1.139c-1.708,3.987-17.641,40.078-50.323,78.139
		c-18.57,21.646-39.025,39.736-60.764,53.781c-26.532,17.148-55.241,28.359-85.321,33.314c-11.812,1.939-20.259,12.473-19.59,24.422
		c0.202,3.447,1.011,6.883,2.412,10.209l0.034,0.059c4.777,11.174,15.851,20.662,33.854,29.035
		c22,10.217,54.901,18.814,97.784,25.539c2.167,4.119,4.415,14.477,5.973,21.566c1.631,7.537,3.331,15.285,5.754,23.516
		c2.615,8.918,9.397,19.574,26.819,19.574c6.604,0,14.197-1.486,22.989-3.193c12.877-2.527,30.487-5.973,52.466-5.973
		c12.186,0,24.813,1.072,37.525,3.184c24.504,4.08,45.627,19.002,70.068,36.283c35.772,25.287,76.267,53.91,138.135,53.91
		c1.687,0,3.38-0.053,5.051-0.17c2.044,0.096,4.58,0.17,7.253,0.17c61.887,0,102.368-28.633,138.104-53.9l0.057-0.053
		c24.445-17.26,45.547-32.16,70.043-36.24c12.707-2.107,25.332-3.184,37.523-3.184c20.996,0,37.619,2.676,52.465,5.572
		c9.688,1.906,17.215,2.824,22.992,2.824l0.564,0.01h0.586c12.742,0,22.107-6.994,25.682-19.234
		c2.373-8.057,4.066-15.625,5.738-23.287c1.457-6.645,3.785-17.295,5.951-21.461c42.91-6.738,75.799-15.314,97.803-25.531
		c17.961-8.332,29.021-17.813,33.826-28.938c1.441-3.336,2.283-6.793,2.473-10.313c0.672-11.951-7.777-22.486-19.592-24.422
		c-133.686-22.033-193.91-159.396-196.4-165.232c-0.162-0.385-0.34-0.764-0.531-1.135c-6.834-13.876-8.412-25.338-4.707-34.074
		c7.293-17.185,35.301-26.076,53.83-31.959c5.365-1.689,10.42-3.296,14.631-4.96c18.242-7.205,31.281-15.021,39.883-23.897
		c10.271-10.581,12.271-20.719,12.148-27.354c-0.314-16.052-12.586-30.316-32.105-37.3c-6.592-2.726-14.109-4.165-21.766-4.165
		c-5.211,0-12.93,0.715-20.234,4.125c-15.641,7.319-29.65,11.32-41.678,11.89c-6.395-0.323-10.881-1.71-13.787-3.034
		c0.365-6.262,0.77-12.694,1.188-19.4l0.174-2.872c4.283-67.873,9.607-152.341-12.75-202.488
		c-15.324-34.345-35.9-63.884-61.172-87.832c-21.193-20.07-45.813-36.337-73.189-48.361
		C1325.261,783.008,1280.846,779.884,1258.615,779.884"/>
</g>
</svg>
